<svg width="135" height="36" viewBox="0 0 135 36" fill="none" xmlns="http://www.w3.org/2000/svg">
<path d="M7.36269 1.4H23.1067L22.7227 3.224C22.0187 3.576 21.2187 3.88 20.3227 4.136C19.4587 4.36 18.6267 4.52 17.8267 4.616L12.0667 31.88H21.3307L26.3227 23.288H28.3387C28.3387 24.024 28.2907 24.888 28.1947 25.88C28.0987 26.872 27.9707 27.912 27.8107 29C27.6507 30.088 27.4587 31.16 27.2347 32.216C27.0427 33.272 26.8347 34.2 26.6107 35H0.25869L0.59469 33.176C1.42669 32.792 2.19469 32.488 2.89869 32.264C3.60269 32.04 4.25869 31.88 4.86669 31.784L10.6267 4.616C9.92269 4.488 9.25069 4.312 8.61069 4.088C7.97069 3.864 7.42669 3.576 6.97869 3.224L7.36269 1.4ZM31.1043 21.992C31.1043 19.048 31.5523 16.296 32.4483 13.736C33.3763 11.144 34.6883 8.904 36.3843 7.016C38.1123 5.096 40.2083 3.592 42.6723 2.504C45.1683 1.384 47.9843 0.823999 51.1203 0.823999C53.2643 0.823999 55.1683 1.144 56.8323 1.784C58.4963 2.392 59.9043 3.288 61.0563 4.472C62.2083 5.624 63.0723 7.032 63.6483 8.696C64.2563 10.36 64.5603 12.232 64.5603 14.312C64.5603 16.936 64.1603 19.528 63.3603 22.088C62.5603 24.616 61.3443 26.888 59.7123 28.904C58.0803 30.888 56.0323 32.504 53.5683 33.752C51.1363 34.968 48.2723 35.576 44.9763 35.576C42.7683 35.576 40.8003 35.24 39.0723 34.568C37.3443 33.864 35.8883 32.904 34.7043 31.688C33.5203 30.472 32.6243 29.032 32.0163 27.368C31.4083 25.704 31.1043 23.912 31.1043 21.992ZM39.2643 22.904C39.2643 26.104 39.8563 28.504 41.0403 30.104C42.2563 31.672 43.8883 32.456 45.9363 32.456C47.7603 32.456 49.3283 31.864 50.6403 30.68C51.9523 29.496 53.0403 27.992 53.9043 26.168C54.7683 24.312 55.3923 22.248 55.7763 19.976C56.1923 17.672 56.4003 15.416 56.4003 13.208C56.4003 10.36 55.9043 8.104 54.9123 6.44C53.9523 4.776 52.3523 3.944 50.1123 3.944C48.8643 3.944 47.7283 4.232 46.7043 4.808C45.7123 5.352 44.8003 6.104 43.9683 7.064C43.1683 8.024 42.4643 9.144 41.8563 10.424C41.2803 11.672 40.8003 13 40.4163 14.408C40.0323 15.816 39.7443 17.256 39.5523 18.728C39.3603 20.168 39.2643 21.56 39.2643 22.904ZM93.3592 32.888C92.5592 33.304 91.6472 33.688 90.6232 34.04C89.6312 34.36 88.6072 34.632 87.5512 34.856C86.5272 35.08 85.5352 35.256 84.5752 35.384C83.6152 35.512 82.7832 35.576 82.0792 35.576C79.9032 35.576 77.9032 35.304 76.0792 34.76C74.2552 34.216 72.6872 33.384 71.3752 32.264C70.0632 31.144 69.0392 29.736 68.3032 28.04C67.5992 26.344 67.2472 24.344 67.2472 22.04C67.2472 18.872 67.7112 15.992 68.6392 13.4C69.5992 10.808 70.9592 8.584 72.7192 6.728C74.5112 4.84 76.7032 3.384 79.2952 2.36C81.8872 1.336 84.8152 0.823999 88.0792 0.823999C89.1352 0.823999 90.1752 0.871999 91.1992 0.967998C92.2552 1.032 93.2472 1.144 94.1752 1.304C95.1352 1.432 95.9992 1.608 96.7672 1.832C97.5352 2.024 98.1592 2.248 98.6392 2.504C98.5432 2.984 98.3832 3.608 98.1592 4.376C97.9352 5.112 97.6792 5.912 97.3912 6.776C97.1032 7.64 96.7992 8.504 96.4792 9.368C96.1592 10.232 95.8392 11.016 95.5192 11.72H93.5512L92.4472 4.424C91.9992 4.264 91.3592 4.152 90.5272 4.088C89.7272 3.992 88.9752 3.944 88.2712 3.944C86.1272 3.944 84.2392 4.472 82.6072 5.528C81.0072 6.552 79.6632 7.944 78.5752 9.704C77.5192 11.464 76.7192 13.496 76.1752 15.8C75.6632 18.104 75.4072 20.52 75.4072 23.048C75.4072 24.712 75.5992 26.136 75.9832 27.32C76.3672 28.504 76.8792 29.48 77.5192 30.248C78.1912 31.016 78.9592 31.576 79.8232 31.928C80.7192 32.28 81.6792 32.456 82.7032 32.456C83.6312 32.456 84.5912 32.328 85.5832 32.072C86.6072 31.816 87.4072 31.512 87.9832 31.16L89.9032 22.136C89.1032 22.072 88.3512 21.912 87.6472 21.656C86.9432 21.4 86.3192 21.096 85.7752 20.744L86.1592 18.92H99.2632L98.8792 20.744C98.5272 21.032 98.0792 21.304 97.5352 21.56C97.0232 21.784 96.3832 21.976 95.6152 22.136L93.3592 32.888ZM101.374 21.992C101.374 19.048 101.822 16.296 102.718 13.736C103.646 11.144 104.958 8.904 106.654 7.016C108.382 5.096 110.478 3.592 112.942 2.504C115.438 1.384 118.254 0.823999 121.39 0.823999C123.534 0.823999 125.438 1.144 127.102 1.784C128.766 2.392 130.174 3.288 131.326 4.472C132.478 5.624 133.342 7.032 133.918 8.696C134.526 10.36 134.83 12.232 134.83 14.312C134.83 16.936 134.43 19.528 133.63 22.088C132.83 24.616 131.614 26.888 129.982 28.904C128.35 30.888 126.302 32.504 123.838 33.752C121.406 34.968 118.542 35.576 115.246 35.576C113.038 35.576 111.07 35.24 109.342 34.568C107.614 33.864 106.158 32.904 104.974 31.688C103.79 30.472 102.894 29.032 102.286 27.368C101.678 25.704 101.374 23.912 101.374 21.992ZM109.534 22.904C109.534 26.104 110.126 28.504 111.31 30.104C112.526 31.672 114.158 32.456 116.206 32.456C118.03 32.456 119.598 31.864 120.91 30.68C122.222 29.496 123.31 27.992 124.174 26.168C125.038 24.312 125.662 22.248 126.046 19.976C126.462 17.672 126.67 15.416 126.67 13.208C126.67 10.36 126.174 8.104 125.182 6.44C124.222 4.776 122.622 3.944 120.382 3.944C119.134 3.944 117.998 4.232 116.974 4.808C115.982 5.352 115.07 6.104 114.238 7.064C113.438 8.024 112.734 9.144 112.126 10.424C111.55 11.672 111.07 13 110.686 14.408C110.302 15.816 110.014 17.256 109.822 18.728C109.63 20.168 109.534 21.56 109.534 22.904Z" fill="#66C5DB"/>
</svg>
