<svg width="36" height="24" viewBox="0 0 46 33" fill="none" xmlns="http://www.w3.org/2000/svg">
<path d="M13.3037 0.148315H8.35557C4.26279 0.148315 0.93335 3.25656 0.93335 7.07743V11.6968C0.93335 15.5177 4.26279 18.626 8.35557 18.626H13.3037C14.0981 18.626 14.8492 18.4783 15.5673 18.2613C14.5698 23.7013 9.5169 27.8648 3.40742 27.8648C2.03992 27.8648 0.93335 28.8978 0.93335 30.1745C0.93335 31.4511 2.03992 32.4842 3.40742 32.4842C12.9559 32.4842 20.7259 25.2303 20.7259 16.3163V7.07743C20.7259 3.25656 17.3965 0.148315 13.3037 0.148315ZM38.0445 0.148315H33.0963C29.0035 0.148315 25.6741 3.25656 25.6741 7.07743V11.6968C25.6741 15.5177 29.0035 18.626 33.0963 18.626H38.0445C38.8388 18.626 39.5899 18.4783 40.3081 18.2613C39.3105 23.7013 34.2576 27.8648 28.1482 27.8648C26.7807 27.8648 25.6741 28.8978 25.6741 30.1745C25.6741 31.4511 26.7807 32.4842 28.1482 32.4842C37.6966 32.4842 45.4667 25.2303 45.4667 16.3163V7.07743C45.4667 3.25656 42.1372 0.148315 38.0445 0.148315Z" fill="#66C5DB"/>
<path d="M16.0591 18.3515L16.2069 17.5458L15.4227 17.7827C14.7365 17.99 14.0356 18.126 13.3037 18.126H8.35557C4.506 18.126 1.43335 15.2097 1.43335 11.6968V7.07743C1.43335 3.56452 4.506 0.648315 8.35557 0.648315H13.3037C17.1533 0.648315 20.2259 3.56452 20.2259 7.07743V16.3163C20.2259 24.9224 12.7127 31.9842 3.40742 31.9842C2.28313 31.9842 1.43335 31.1432 1.43335 30.1745C1.43335 29.2058 2.28313 28.3648 3.40742 28.3648C9.74061 28.3648 15.0149 24.0458 16.0591 18.3515ZM40.7999 18.3515L40.9476 17.5458L40.1635 17.7827C39.4773 17.99 38.7763 18.126 38.0445 18.126H33.0963C29.2467 18.126 26.1741 15.2097 26.1741 11.6968V7.07743C26.1741 3.56452 29.2467 0.648315 33.0963 0.648315H38.0445C41.894 0.648315 44.9667 3.56452 44.9667 7.07743V16.3163C44.9667 24.9224 37.4534 31.9842 28.1482 31.9842C27.0239 31.9842 26.1741 31.1432 26.1741 30.1745C26.1741 29.2058 27.0239 28.3648 28.1482 28.3648C34.4814 28.3648 39.7557 24.0458 40.7999 18.3515Z" stroke="black" stroke-opacity="0.1"/>
</svg>
